<svg width="20" height="16" viewBox="0 0 20 16" fill="none" xmlns="http://www.w3.org/2000/svg">
<path d="M2 16C1.45 16 0.979001 15.804 0.587001 15.412C0.195002 15.02 -0.000664969 14.5493 1.69779e-06 14C1.69779e-06 13.45 0.196002 12.979 0.588002 12.587C0.980002 12.195 1.45067 11.9993 2 12H18C18.55 12 19.021 12.196 19.413 12.588C19.805 12.98 20.0007 13.4507 20 14C20 14.55 19.804 15.021 19.412 15.413C19.02 15.805 18.5493 16.0007 18 16H2ZM3 15H5V13H3V15ZM2 4C1.45 4 0.979001 3.804 0.587001 3.412C0.195002 3.02 -0.000664969 2.54933 1.69779e-06 2C1.69779e-06 1.45 0.196002 0.979001 0.588002 0.587001C0.980002 0.195002 1.45067 -0.000664969 2 1.69779e-06H18C18.55 1.69779e-06 19.021 0.196001 19.413 0.588001C19.805 0.980001 20.0007 1.45067 20 2C20 2.55 19.804 3.021 19.412 3.413C19.02 3.805 18.5493 4.00067 18 4H2ZM3 3H5V1H3V3ZM2 10C1.45 10 0.979001 9.804 0.587001 9.412C0.195002 9.02 -0.000664969 8.54933 1.69779e-06 8C1.69779e-06 7.45 0.196002 6.979 0.588002 6.587C0.980002 6.195 1.45067 5.99933 2 6H18C18.55 6 19.021 6.196 19.413 6.588C19.805 6.98 20.0007 7.45067 20 8C20 8.55 19.804 9.021 19.412 9.413C19.02 9.805 18.5493 10.0007 18 10H2ZM3 9H5V7H3V9Z" fill="#A49930"/>
</svg>
