<svg width="20" height="16" viewBox="0 0 20 16" fill="none" xmlns="http://www.w3.org/2000/svg">
<path d="M2.37057 2C2.06176 2 1.80273 1.904 1.59346 1.712C1.3842 1.52 1.27993 1.28267 1.28065 1C1.28065 0.71667 1.38529 0.479004 1.59455 0.287004C1.80381 0.0950036 2.06249 -0.000663206 2.37057 3.4602e-06H17.6294C17.9382 3.4602e-06 18.1973 0.0960036 18.4065 0.288004C18.6158 0.480004 18.7201 0.717337 18.7193 1C18.7193 1.28334 18.6147 1.521 18.4054 1.713C18.1962 1.905 17.9375 2.00067 17.6294 2H2.37057ZM2.37057 16C2.06176 16 1.80273 15.904 1.59346 15.712C1.3842 15.52 1.27993 15.2827 1.28065 15V10H1.08992C0.744778 10 0.463215 9.879 0.245232 9.637C0.027248 9.395 -0.0454133 9.116 0.027248 8.8L1.11717 3.8C1.17166 3.56667 1.29882 3.375 1.49864 3.225C1.69846 3.075 1.92552 3 2.17984 3H17.8202C18.0745 3 18.3015 3.075 18.5014 3.225C18.7012 3.375 18.8283 3.56667 18.8828 3.8L19.9728 8.8C20.0454 9.11667 19.9728 9.39567 19.7548 9.637C19.5368 9.87834 19.2552 9.99934 18.9101 10H18.7193V15C18.7193 15.2833 18.6147 15.521 18.4054 15.713C18.1962 15.905 17.9375 16.0007 17.6294 16C17.3206 16 17.0616 15.904 16.8523 15.712C16.6431 15.52 16.5388 15.2827 16.5395 15V10H12.1798V15C12.1798 15.2833 12.0752 15.521 11.8659 15.713C11.6567 15.905 11.398 16.0007 11.0899 16H2.37057ZM3.46049 14H10V10H3.46049V14Z" fill="#A49930"/>
</svg>
